<svg width="185" height="55" viewBox="0 0 185 55" fill="none" xmlns="http://www.w3.org/2000/svg">
<path d="M11.124 2.916L8.316 22.536C8.316 22.632 8.304 22.752 8.28 22.896C8.256 23.016 8.256 23.136 8.28 23.256C8.304 23.352 8.352 23.436 8.424 23.508C8.496 23.58 8.604 23.592 8.748 23.544C9.084 23.448 9.252 23.472 9.252 23.616C9.252 23.76 9.168 23.916 9 24.084C8.64 24.396 8.148 24.684 7.524 24.948C6.924 25.188 6.276 25.392 5.58 25.56C4.908 25.704 4.224 25.788 3.528 25.812C2.832 25.812 2.208 25.728 1.656 25.56C1.128 25.368 0.708 25.068 0.396 24.66C0.108 24.252 0.012 23.7 0.108 23.004L2.664 4.14C2.664 4.02 2.604 3.924 2.484 3.852C2.388 3.756 2.28 3.66 2.16 3.564C2.064 3.516 2.004 3.48 1.98 3.456C1.908 3.432 1.872 3.396 1.872 3.348C1.872 3.276 1.884 3.204 1.908 3.132H2.016L11.124 2.916ZM20.2064 20.376C20.2304 21.432 20.4584 22.236 20.8904 22.788C21.3224 23.34 21.8624 23.7 22.5104 23.868C23.1584 24.012 23.8664 24 24.6344 23.832C25.4264 23.64 26.1704 23.34 26.8664 22.932C27.6824 22.5 28.4264 21.912 29.0984 21.168C29.5304 20.664 29.8424 20.496 30.0344 20.664C30.2504 20.832 30.1664 21.156 29.7824 21.636C28.9184 22.524 27.9464 23.28 26.8664 23.904C25.7864 24.528 24.6704 25.008 23.5184 25.344C22.3664 25.704 21.1184 25.884 19.7744 25.884C18.4544 25.86 17.2064 25.632 16.0304 25.2C14.8544 24.744 13.8584 24.072 13.0424 23.184C12.2264 22.272 11.7704 21.108 11.6744 19.692C11.6744 18.18 12.0104 16.788 12.6824 15.516C13.3544 14.244 14.2304 13.152 15.3104 12.24C16.3904 11.328 17.6144 10.62 18.9824 10.116C20.3744 9.612 21.7784 9.36 23.1944 9.36C23.9144 9.36 24.6464 9.468 25.3904 9.684C26.1344 9.876 26.8064 10.176 27.4064 10.584C28.0304 10.992 28.5464 11.496 28.9544 12.096C29.3864 12.696 29.6384 13.404 29.7104 14.22C29.7344 15.444 29.4224 16.452 28.7744 17.244C28.1264 18.012 27.3104 18.636 26.3264 19.116C25.3664 19.572 24.3344 19.896 23.2304 20.088C22.1264 20.28 21.1184 20.376 20.2064 20.376ZM20.2064 19.476C20.5904 19.308 20.9624 18.972 21.3224 18.468C21.6824 17.964 22.0064 17.376 22.2944 16.704C22.5824 16.032 22.8224 15.324 23.0144 14.58C23.2304 13.836 23.3624 13.164 23.4104 12.564C23.4824 11.94 23.4704 11.424 23.3744 11.016C23.2784 10.608 23.0864 10.404 22.7984 10.404C22.5584 10.404 22.3184 10.596 22.0784 10.98C21.8624 11.364 21.6584 11.856 21.4664 12.456C21.2744 13.056 21.0944 13.716 20.9264 14.436C20.7584 15.156 20.6144 15.852 20.4944 16.524C20.3984 17.196 20.3144 17.808 20.2424 18.36C20.1944 18.888 20.1824 19.26 20.2064 19.476ZM40.7638 13.752C41.2438 12.744 41.8438 11.892 42.5638 11.196C43.2838 10.5 44.0278 9.984 44.7958 9.648C45.5878 9.288 46.3558 9.12 47.0998 9.144C47.8438 9.168 48.4918 9.42 49.0438 9.9C49.5958 10.356 50.0038 11.052 50.2678 11.988C50.5558 12.9 50.6158 14.076 50.4478 15.516C50.3038 16.716 50.1478 17.916 49.9798 19.116C49.8358 20.292 49.6798 21.48 49.5118 22.68C49.4878 22.8 49.4758 22.992 49.4758 23.256C49.4998 23.496 49.6198 23.592 49.8358 23.544C50.1718 23.448 50.3398 23.472 50.3398 23.616C50.3398 23.76 50.2438 23.916 50.0518 24.084C49.6678 24.42 49.1758 24.72 48.5758 24.984C47.9758 25.248 47.3278 25.452 46.6318 25.596C45.9598 25.74 45.2758 25.824 44.5798 25.848C43.9078 25.848 43.3078 25.764 42.7798 25.596C42.2518 25.404 41.8318 25.104 41.5198 24.696C41.2318 24.264 41.1358 23.7 41.2318 23.004L42.2038 15.336C42.2278 15.264 42.2518 15.096 42.2758 14.832C42.3238 14.544 42.3598 14.244 42.3838 13.932C42.4318 13.62 42.4558 13.344 42.4558 13.104C42.4558 12.84 42.4198 12.696 42.3478 12.672C42.2038 12.6 42.0238 12.732 41.8078 13.068C41.5918 13.38 41.3878 13.752 41.1958 14.184C41.0038 14.592 40.8358 15 40.6918 15.408C40.5478 15.792 40.4638 16.032 40.4398 16.128L39.0718 25.524H30.9358L32.8438 10.98C32.8438 10.788 32.7958 10.656 32.6998 10.584C32.6278 10.488 32.5078 10.404 32.3398 10.332C32.2438 10.26 32.2078 10.2 32.2318 10.152C32.2558 10.08 32.3038 10.032 32.3758 10.008L41.3038 9.72V9.756L40.7638 13.752ZM64.0285 22.932C63.4045 23.7 62.5765 24.312 61.5445 24.768C60.5125 25.2 59.4205 25.476 58.2685 25.596C57.1165 25.716 55.9645 25.692 54.8125 25.524C53.6845 25.332 52.7005 24.984 51.8605 24.48V20.412H52.1845C52.3765 20.964 52.7605 21.612 53.3365 22.356C53.9125 23.1 54.5605 23.736 55.2805 24.264C55.9285 24.744 56.5525 25.02 57.1525 25.092C57.7765 25.14 58.2325 25.044 58.5205 24.804C58.8325 24.564 58.9165 24.192 58.7725 23.688C58.6525 23.16 58.1605 22.536 57.2965 21.816C56.7445 21.336 56.1685 20.904 55.5685 20.52C54.9685 20.112 54.4165 19.68 53.9125 19.224C53.4085 18.744 52.9885 18.216 52.6525 17.64C52.3165 17.04 52.1485 16.32 52.1485 15.48C52.1485 14.472 52.3405 13.596 52.7245 12.852C53.1325 12.108 53.6605 11.484 54.3085 10.98C54.9805 10.476 55.7365 10.08 56.5765 9.792C57.4165 9.504 58.2805 9.324 59.1685 9.252C60.1765 9.06 61.2685 9.06 62.4445 9.252C63.6205 9.444 64.6885 9.816 65.6485 10.368V14.364V14.4H65.3245V14.364C65.1325 13.956 64.8085 13.464 64.3525 12.888C63.9205 12.312 63.4405 11.784 62.9125 11.304C62.1685 10.584 61.4365 10.128 60.7165 9.936C60.0205 9.72 59.4685 9.708 59.0605 9.9C58.6525 10.068 58.4605 10.404 58.4845 10.908C58.5085 11.412 58.8805 12 59.6005 12.672C60.1525 13.152 60.7285 13.608 61.3285 14.04C61.9525 14.448 62.3965 14.748 62.6605 14.94C63.3805 15.444 63.9565 16.02 64.3885 16.668C64.8445 17.292 65.1445 17.964 65.2885 18.684C65.4325 19.38 65.3965 20.1 65.1805 20.844C64.9885 21.564 64.6045 22.26 64.0285 22.932ZM93.4484 26.712C92.7764 26.88 91.8884 27.048 90.7844 27.216C89.7044 27.384 88.5404 27.492 87.2924 27.54C86.0684 27.612 84.8324 27.588 83.5844 27.468C82.3364 27.372 81.2084 27.144 80.2004 26.784C79.1924 26.4 78.3644 25.86 77.7164 25.164C77.0924 24.444 76.7804 23.52 76.7804 22.392C76.7804 21.504 76.9844 20.664 77.3924 19.872C77.8004 19.056 78.3284 18.336 78.9764 17.712C79.6244 17.064 80.3564 16.512 81.1724 16.056C81.9884 15.6 82.7924 15.264 83.5844 15.048C83.0564 14.208 82.6964 13.404 82.5044 12.636C82.3364 11.844 82.3124 11.1 82.4324 10.404C82.5524 9.588 82.8644 8.856 83.3684 8.208C83.8964 7.56 84.5324 7.008 85.2764 6.552C86.0444 6.072 86.8844 5.7 87.7964 5.436C88.7084 5.148 89.6084 4.968 90.4964 4.896C91.4084 4.824 92.2604 4.872 93.0524 5.04C93.8684 5.184 94.5524 5.46 95.1044 5.868C95.6564 6.252 96.0404 6.768 96.2564 7.416C96.4964 8.04 96.4724 8.808 96.1844 9.72C95.9924 10.32 95.6924 10.932 95.2844 11.556C94.9004 12.156 94.3964 12.732 93.7724 13.284C93.1724 13.836 92.4644 14.34 91.6484 14.796C90.8564 15.252 89.9804 15.624 89.0204 15.912C89.2844 16.776 89.6324 17.652 90.0644 18.54C90.4964 19.428 90.9764 20.292 91.5044 21.132C92.0564 21.972 92.6444 22.776 93.2684 23.544C93.8924 24.288 94.5404 24.96 95.2124 25.56C95.5484 25.44 95.8724 25.272 96.1844 25.056C96.5204 24.816 96.7004 24.492 96.7244 24.084C96.7244 23.772 96.6284 23.508 96.4364 23.292C96.2684 23.076 96.0524 22.86 95.7884 22.644C95.5484 22.428 95.2964 22.188 95.0324 21.924C94.7684 21.66 94.5764 21.324 94.4564 20.916C94.2644 20.172 94.3604 19.452 94.7444 18.756C95.1524 18.06 95.7764 17.604 96.6164 17.388C97.1444 17.244 97.6484 17.244 98.1284 17.388C98.6084 17.532 99.0284 17.784 99.3884 18.144C99.7484 18.504 100.024 18.936 100.216 19.44C100.408 19.944 100.48 20.46 100.432 20.988C100.36 21.588 100.168 22.152 99.8564 22.68C99.5684 23.184 99.1964 23.652 98.7404 24.084C98.3084 24.492 97.8284 24.852 97.3004 25.164C96.7724 25.476 96.2444 25.74 95.7164 25.956C95.9564 26.148 96.2324 26.364 96.5444 26.604C96.8564 26.82 97.1804 27.024 97.5164 27.216C97.8524 27.432 98.2004 27.612 98.5604 27.756C98.9204 27.924 99.2564 28.044 99.5684 28.116C99.5204 28.116 99.4844 28.116 99.4604 28.116C99.4604 28.14 99.4364 28.152 99.3884 28.152C98.3564 28.368 97.3124 28.332 96.2564 28.044C95.2004 27.78 94.2644 27.336 93.4484 26.712ZM88.3724 13.68C90.0284 12.744 91.1804 11.832 91.8284 10.944C92.5004 10.032 92.8484 9.216 92.8724 8.496C92.8964 7.776 92.6804 7.188 92.2244 6.732C91.7684 6.252 91.2404 5.976 90.6404 5.904C90.1604 5.856 89.6924 5.952 89.2364 6.192C88.7804 6.432 88.4204 6.864 88.1564 7.488C87.8924 8.088 87.7484 8.892 87.7244 9.9C87.7244 10.908 87.9404 12.168 88.3724 13.68ZM85.8164 18.324C85.0724 19.236 84.6164 20.076 84.4484 20.844C84.2804 21.588 84.3164 22.248 84.5564 22.824C84.8204 23.4 85.2404 23.904 85.8164 24.336C86.3924 24.768 87.0524 25.116 87.7964 25.38C88.5644 25.644 89.3684 25.836 90.2084 25.956C91.0484 26.052 91.8644 26.076 92.6564 26.028C91.1684 24.9 89.8964 23.736 88.8404 22.536C87.7844 21.336 86.7764 19.932 85.8164 18.324ZM122.429 2.916L119.621 22.536C119.621 22.632 119.609 22.752 119.585 22.896C119.561 23.016 119.561 23.136 119.585 23.256C119.609 23.352 119.657 23.436 119.729 23.508C119.801 23.58 119.909 23.592 120.053 23.544C120.389 23.448 120.557 23.472 120.557 23.616C120.557 23.76 120.473 23.916 120.305 24.084C119.945 24.396 119.453 24.684 118.829 24.948C118.229 25.188 117.581 25.392 116.885 25.56C116.213 25.704 115.529 25.788 114.833 25.812C114.137 25.812 113.513 25.728 112.961 25.56C112.433 25.368 112.013 25.068 111.701 24.66C111.413 24.252 111.317 23.7 111.413 23.004L113.969 4.14C113.969 4.02 113.909 3.924 113.789 3.852C113.693 3.756 113.585 3.66 113.465 3.564C113.369 3.516 113.309 3.48 113.285 3.456C113.213 3.432 113.177 3.396 113.177 3.348C113.177 3.276 113.189 3.204 113.213 3.132H113.321L122.429 2.916ZM131.511 20.376C131.535 21.432 131.763 22.236 132.195 22.788C132.627 23.34 133.167 23.7 133.815 23.868C134.463 24.012 135.171 24 135.939 23.832C136.731 23.64 137.475 23.34 138.171 22.932C138.987 22.5 139.731 21.912 140.403 21.168C140.835 20.664 141.147 20.496 141.339 20.664C141.555 20.832 141.471 21.156 141.087 21.636C140.223 22.524 139.251 23.28 138.171 23.904C137.091 24.528 135.975 25.008 134.823 25.344C133.671 25.704 132.423 25.884 131.079 25.884C129.759 25.86 128.511 25.632 127.335 25.2C126.159 24.744 125.163 24.072 124.347 23.184C123.531 22.272 123.075 21.108 122.979 19.692C122.979 18.18 123.315 16.788 123.987 15.516C124.659 14.244 125.535 13.152 126.615 12.24C127.695 11.328 128.919 10.62 130.287 10.116C131.679 9.612 133.083 9.36 134.499 9.36C135.219 9.36 135.951 9.468 136.695 9.684C137.439 9.876 138.111 10.176 138.711 10.584C139.335 10.992 139.851 11.496 140.259 12.096C140.691 12.696 140.943 13.404 141.015 14.22C141.039 15.444 140.727 16.452 140.079 17.244C139.431 18.012 138.615 18.636 137.631 19.116C136.671 19.572 135.639 19.896 134.535 20.088C133.431 20.28 132.423 20.376 131.511 20.376ZM131.511 19.476C131.895 19.308 132.267 18.972 132.627 18.468C132.987 17.964 133.311 17.376 133.599 16.704C133.887 16.032 134.127 15.324 134.319 14.58C134.535 13.836 134.667 13.164 134.715 12.564C134.787 11.94 134.775 11.424 134.679 11.016C134.583 10.608 134.391 10.404 134.103 10.404C133.863 10.404 133.623 10.596 133.383 10.98C133.167 11.364 132.963 11.856 132.771 12.456C132.579 13.056 132.399 13.716 132.231 14.436C132.063 15.156 131.919 15.852 131.799 16.524C131.703 17.196 131.619 17.808 131.547 18.36C131.499 18.888 131.487 19.26 131.511 19.476ZM152.357 22.392C151.925 23.016 151.373 23.616 150.701 24.192C150.053 24.768 149.345 25.212 148.577 25.524C147.833 25.812 147.065 25.932 146.273 25.884C145.505 25.812 144.785 25.464 144.113 24.84C143.681 24.48 143.345 24.06 143.105 23.58C142.889 23.076 142.733 22.56 142.637 22.032C142.565 21.48 142.541 20.928 142.565 20.376C142.613 19.8 142.685 19.26 142.781 18.756C143.069 17.388 143.573 16.116 144.293 14.94C145.037 13.74 145.925 12.72 146.957 11.88C148.013 11.016 149.189 10.356 150.485 9.9C151.805 9.444 153.185 9.24 154.625 9.288C155.921 9.336 157.193 9.48 158.441 9.72C159.689 9.936 160.961 10.044 162.257 10.044L160.492 22.536C160.492 22.632 160.48 22.752 160.457 22.896C160.433 23.016 160.421 23.136 160.421 23.256C160.445 23.352 160.481 23.436 160.529 23.508C160.601 23.58 160.709 23.592 160.853 23.544C160.997 23.496 161.129 23.484 161.249 23.508C161.393 23.508 161.429 23.604 161.357 23.796C161.165 24.18 160.685 24.54 159.917 24.876C159.149 25.212 158.297 25.464 157.361 25.632C156.449 25.8 155.561 25.848 154.697 25.776C153.833 25.68 153.209 25.392 152.825 24.912C152.465 24.552 152.285 24.156 152.285 23.724C152.285 23.292 152.309 22.848 152.357 22.392ZM153.797 10.836C153.749 10.764 153.689 10.692 153.617 10.62C153.545 10.548 153.449 10.5 153.329 10.476C153.089 10.428 152.873 10.524 152.681 10.764C152.489 11.004 152.309 11.328 152.141 11.736C151.997 12.144 151.865 12.6 151.745 13.104C151.625 13.584 151.517 14.064 151.421 14.544C151.325 15 151.241 15.42 151.169 15.804C151.121 16.164 151.085 16.428 151.061 16.596C151.061 16.668 151.037 16.872 150.989 17.208C150.941 17.544 150.893 17.94 150.845 18.396C150.797 18.828 150.749 19.296 150.701 19.8C150.677 20.28 150.665 20.724 150.665 21.132C150.689 21.54 150.737 21.864 150.809 22.104C150.905 22.344 151.037 22.44 151.205 22.392C151.349 22.32 151.493 22.176 151.637 21.96C151.805 21.72 151.949 21.456 152.069 21.168C152.213 20.88 152.333 20.604 152.429 20.34C152.549 20.052 152.645 19.824 152.717 19.656L153.797 10.836ZM173.882 10.764L172.154 24.048C171.938 25.752 171.446 27.132 170.678 28.188C169.91 29.244 168.962 30.06 167.834 30.636C166.706 31.236 165.434 31.644 164.018 31.86C162.626 32.1 161.186 32.232 159.698 32.256C159.578 32.256 159.53 32.172 159.554 32.004C159.554 31.836 159.602 31.74 159.698 31.716C160.514 31.644 161.174 31.344 161.678 30.816C162.182 30.312 162.59 29.688 162.902 28.944C163.19 28.2 163.406 27.42 163.55 26.604C163.694 25.764 163.814 25.02 163.91 24.372C164.246 22.116 164.546 19.86 164.81 17.604C165.074 15.348 165.35 13.068 165.638 10.764H164.774V10.044H165.638C165.83 8.58 166.346 7.392 167.186 6.48C168.026 5.544 169.034 4.812 170.21 4.284C171.41 3.732 172.682 3.36 174.026 3.168C175.394 2.952 176.678 2.844 177.878 2.844C178.358 2.844 178.898 2.868 179.498 2.916C180.098 2.964 180.686 3.06 181.262 3.204C181.862 3.348 182.414 3.552 182.918 3.816C183.422 4.08 183.842 4.428 184.178 4.86C184.658 5.508 184.874 6.108 184.826 6.66C184.778 7.212 184.55 7.692 184.142 8.1C183.758 8.484 183.254 8.796 182.63 9.036C182.006 9.276 181.37 9.408 180.722 9.432C180.434 9.456 180.086 9.456 179.678 9.432C179.294 9.384 178.922 9.288 178.562 9.144C178.202 9 177.902 8.796 177.662 8.532C177.422 8.244 177.302 7.884 177.302 7.452C177.302 7.092 177.422 6.756 177.662 6.444C177.926 6.132 178.202 5.844 178.49 5.58C178.802 5.292 179.066 5.028 179.282 4.788C179.498 4.524 179.57 4.272 179.498 4.032C179.426 3.696 179.198 3.468 178.814 3.348C178.454 3.204 178.13 3.132 177.842 3.132C177.266 3.132 176.786 3.24 176.402 3.456C176.018 3.672 175.694 3.96 175.43 4.32C175.19 4.68 174.986 5.088 174.818 5.544C174.674 6 174.554 6.456 174.458 6.912C174.338 7.488 174.242 8.028 174.17 8.532C174.098 9.036 174.026 9.54 173.954 10.044H176.762V10.764H173.882Z" fill="black"/>
<path d="M5.85 41.18C6.198 41.18 6.552 41.216 6.912 41.288C7.272 41.36 7.602 41.48 7.902 41.648C8.202 41.816 8.442 42.038 8.622 42.314C8.814 42.578 8.91 42.908 8.91 43.304C8.91 43.556 8.862 43.79 8.766 44.006C8.682 44.222 8.538 44.396 8.334 44.528C8.118 44.684 7.896 44.762 7.668 44.762L5.688 44.78C5.7 44.696 5.748 44.504 5.832 44.204C5.916 43.904 5.982 43.586 6.03 43.25C6.09 42.902 6.114 42.584 6.102 42.296C6.102 41.996 6.03 41.816 5.886 41.756C5.742 41.684 5.604 41.726 5.472 41.882C5.34 42.038 5.214 42.26 5.094 42.548C4.974 42.824 4.866 43.148 4.77 43.52C4.674 43.88 4.59 44.234 4.518 44.582C4.446 44.93 4.392 45.242 4.356 45.518C4.32 45.794 4.302 45.98 4.302 46.076C4.302 46.388 4.326 46.694 4.374 46.994C4.422 47.294 4.518 47.558 4.662 47.786C4.806 48.014 5.004 48.194 5.256 48.326C5.508 48.458 5.832 48.506 6.228 48.47C6.696 48.434 7.17 48.284 7.65 48.02C8.13 47.756 8.526 47.444 8.838 47.084C8.922 46.988 9.018 46.91 9.126 46.85C9.198 46.802 9.264 46.796 9.324 46.832C9.336 46.856 9.336 46.886 9.324 46.922C9.324 46.946 9.324 46.97 9.324 46.994C9.324 47.054 9.3 47.108 9.252 47.156C9.216 47.204 9.18 47.258 9.144 47.318C8.736 47.762 8.262 48.14 7.722 48.452C7.194 48.764 6.624 49.004 6.012 49.172C5.628 49.292 5.22 49.37 4.788 49.406C4.368 49.442 3.942 49.436 3.51 49.388C3.09 49.34 2.682 49.244 2.286 49.1C1.89 48.956 1.536 48.758 1.224 48.506C0.912 48.254 0.654 47.948 0.45 47.588C0.258 47.228 0.144 46.814 0.108 46.346C0.12 45.59 0.294 44.894 0.63 44.258C0.966 43.622 1.398 43.076 1.926 42.62C2.466 42.164 3.078 41.81 3.762 41.558C4.446 41.306 5.142 41.18 5.85 41.18ZM18.7944 44.276C18.8424 44.948 18.7224 45.584 18.4344 46.184C18.1584 46.784 17.7804 47.312 17.3004 47.768C16.8204 48.224 16.2684 48.602 15.6444 48.902C15.0204 49.19 14.3904 49.358 13.7544 49.406C13.1664 49.466 12.6084 49.418 12.0804 49.262C11.5524 49.094 11.0964 48.842 10.7124 48.506C10.3284 48.17 10.0404 47.756 9.84839 47.264C9.65639 46.76 9.60839 46.196 9.70439 45.572C9.80039 44.936 10.0224 44.348 10.3704 43.808C10.7304 43.268 11.1684 42.806 11.6844 42.422C12.2004 42.026 12.7644 41.72 13.3764 41.504C14.0004 41.288 14.6304 41.186 15.2664 41.198C15.7104 41.21 16.1364 41.288 16.5444 41.432C16.9644 41.576 17.3364 41.78 17.6604 42.044C17.9844 42.296 18.2424 42.614 18.4344 42.998C18.6384 43.37 18.7584 43.796 18.7944 44.276ZM14.7084 41.756C14.5764 41.744 14.4564 41.834 14.3484 42.026C14.2404 42.206 14.1384 42.458 14.0424 42.782C13.9584 43.106 13.8804 43.472 13.8084 43.88C13.7484 44.288 13.6944 44.696 13.6464 45.104C13.6464 45.152 13.6344 45.278 13.6104 45.482C13.5864 45.674 13.5624 45.908 13.5384 46.184C13.5264 46.448 13.5084 46.736 13.4844 47.048C13.4724 47.348 13.4724 47.63 13.4844 47.894C13.4964 48.158 13.5204 48.38 13.5564 48.56C13.6044 48.74 13.6764 48.836 13.7724 48.848C13.8804 48.86 13.9764 48.788 14.0604 48.632C14.1564 48.464 14.2464 48.254 14.3304 48.002C14.4144 47.738 14.4864 47.456 14.5464 47.156C14.6064 46.844 14.6604 46.55 14.7084 46.274C14.7564 45.998 14.7924 45.758 14.8164 45.554C14.8524 45.35 14.8764 45.224 14.8884 45.176C14.9364 44.768 14.9784 44.366 15.0144 43.97C15.0504 43.562 15.0624 43.202 15.0504 42.89C15.0504 42.566 15.0204 42.302 14.9604 42.098C14.9124 41.894 14.8284 41.78 14.7084 41.756ZM24.4304 43.376C24.6464 42.896 24.9164 42.488 25.2404 42.152C25.5764 41.816 25.9244 41.558 26.2844 41.378C26.6564 41.198 27.0224 41.102 27.3824 41.09C27.7544 41.066 28.0844 41.138 28.3724 41.306C28.6604 41.462 28.8884 41.72 29.0564 42.08C29.2364 42.428 29.3144 42.878 29.2904 43.43C29.4344 43.058 29.6264 42.728 29.8664 42.44C30.1064 42.152 30.3704 41.912 30.6584 41.72C30.9584 41.516 31.2704 41.366 31.5944 41.27C31.9184 41.162 32.2364 41.114 32.5484 41.126C32.9924 41.15 33.3344 41.264 33.5744 41.468C33.8264 41.672 34.0064 41.924 34.1144 42.224C34.2224 42.524 34.2764 42.854 34.2764 43.214C34.2764 43.574 34.2584 43.922 34.2224 44.258C34.1264 44.858 34.0364 45.458 33.9524 46.058C33.8804 46.646 33.8084 47.24 33.7364 47.84C33.7244 47.864 33.7184 47.912 33.7184 47.984C33.7184 48.044 33.7244 48.116 33.7364 48.2C33.7604 48.272 33.8144 48.296 33.8984 48.272C33.9224 48.26 33.9584 48.248 34.0064 48.236C34.0544 48.224 34.0904 48.248 34.1144 48.308C34.1144 48.308 34.1144 48.338 34.1144 48.398C34.1024 48.446 34.0604 48.494 33.9884 48.542C33.8084 48.71 33.5624 48.86 33.2504 48.992C32.9504 49.124 32.6264 49.226 32.2784 49.298C31.9424 49.37 31.6004 49.412 31.2524 49.424C30.9044 49.424 30.5924 49.382 30.3164 49.298C30.0524 49.202 29.8424 49.052 29.6864 48.848C29.5424 48.632 29.4944 48.35 29.5424 48.002L30.0644 44.168C30.0644 44.132 30.0764 44.048 30.1004 43.916C30.1244 43.772 30.1424 43.622 30.1544 43.466C30.1784 43.31 30.1844 43.172 30.1724 43.052C30.1724 42.92 30.1544 42.848 30.1184 42.836C30.0464 42.8 29.9624 42.854 29.8664 42.998C29.7704 43.142 29.6744 43.316 29.5784 43.52C29.4824 43.712 29.3984 43.904 29.3264 44.096C29.2664 44.288 29.2304 44.408 29.2184 44.456L28.5524 49.226H24.4664L25.1504 44.168C25.1624 44.132 25.1804 44.036 25.2044 43.88C25.2404 43.724 25.2644 43.562 25.2764 43.394C25.2884 43.226 25.2884 43.082 25.2764 42.962C25.2644 42.842 25.2164 42.8 25.1324 42.836C25.0604 42.884 24.9764 42.992 24.8804 43.16C24.7844 43.328 24.6884 43.508 24.5924 43.7C24.5084 43.892 24.4364 44.072 24.3764 44.24C24.3164 44.408 24.2864 44.516 24.2864 44.564L23.5844 49.262H19.4444L20.4344 41.99C20.4344 41.858 20.3864 41.768 20.2904 41.72C20.2664 41.708 20.2484 41.702 20.2364 41.702C20.2244 41.69 20.2064 41.678 20.1824 41.666C20.1704 41.666 20.1464 41.648 20.1104 41.612V41.594C20.1104 41.546 20.1224 41.522 20.1464 41.522C20.1584 41.51 20.1764 41.504 20.2004 41.504L24.7184 41.36V41.378L24.4304 43.376ZM38.3486 36.266C38.6126 36.266 38.8646 36.32 39.1046 36.428C39.3446 36.524 39.5546 36.662 39.7346 36.842C39.9146 37.01 40.0526 37.214 40.1486 37.454C40.2566 37.694 40.3106 37.946 40.3106 38.21C40.3106 38.486 40.2566 38.744 40.1486 38.984C40.0526 39.224 39.9146 39.434 39.7346 39.614C39.5546 39.794 39.3446 39.938 39.1046 40.046C38.8646 40.142 38.6126 40.19 38.3486 40.19C38.0726 40.19 37.8146 40.142 37.5746 40.046C37.3346 39.938 37.1246 39.794 36.9446 39.614C36.7646 39.434 36.6206 39.224 36.5126 38.984C36.4166 38.744 36.3686 38.486 36.3686 38.21C36.3686 37.946 36.4166 37.694 36.5126 37.454C36.6206 37.214 36.7646 37.01 36.9446 36.842C37.1246 36.662 37.3346 36.524 37.5746 36.428C37.8146 36.32 38.0726 36.266 38.3486 36.266ZM39.9686 41.522L39.0866 47.768C39.0866 47.84 39.0806 47.894 39.0686 47.93C39.0686 47.978 39.0686 48.038 39.0686 48.11C39.0806 48.182 39.0986 48.23 39.1226 48.254C39.1466 48.29 39.2066 48.296 39.3026 48.272C39.3266 48.26 39.3626 48.248 39.4106 48.236C39.4586 48.224 39.4946 48.242 39.5186 48.29C39.5426 48.314 39.5486 48.332 39.5366 48.344C39.5246 48.356 39.5186 48.374 39.5186 48.398C39.5186 48.422 39.5006 48.446 39.4646 48.47C39.4406 48.494 39.4166 48.518 39.3926 48.542C39.2366 48.686 39.0086 48.824 38.7086 48.956C38.4206 49.076 38.1086 49.178 37.7726 49.262C37.4366 49.346 37.0946 49.394 36.7466 49.406C36.3986 49.418 36.0866 49.382 35.8106 49.298C35.5466 49.214 35.3306 49.07 35.1626 48.866C35.0066 48.65 34.9526 48.362 35.0006 48.002L35.8286 41.522H39.9686ZM45.2198 43.376C45.4598 42.872 45.7598 42.446 46.1198 42.098C46.4798 41.75 46.8518 41.492 47.2358 41.324C47.6318 41.144 48.0158 41.06 48.3878 41.072C48.7598 41.084 49.0838 41.21 49.3598 41.45C49.6358 41.678 49.8398 42.026 49.9718 42.494C50.1158 42.95 50.1458 43.538 50.0618 44.258C49.9898 44.858 49.9118 45.458 49.8278 46.058C49.7558 46.646 49.6778 47.24 49.5938 47.84C49.5818 47.9 49.5758 47.996 49.5758 48.128C49.5878 48.248 49.6478 48.296 49.7558 48.272C49.9238 48.224 50.0078 48.236 50.0078 48.308C50.0078 48.38 49.9598 48.458 49.8638 48.542C49.6718 48.71 49.4258 48.86 49.1258 48.992C48.8258 49.124 48.5018 49.226 48.1538 49.298C47.8178 49.37 47.4758 49.412 47.1278 49.424C46.7918 49.424 46.4918 49.382 46.2278 49.298C45.9638 49.202 45.7538 49.052 45.5978 48.848C45.4538 48.632 45.4058 48.35 45.4538 48.002L45.9398 44.168C45.9518 44.132 45.9638 44.048 45.9758 43.916C45.9998 43.772 46.0178 43.622 46.0298 43.466C46.0538 43.31 46.0658 43.172 46.0658 43.052C46.0658 42.92 46.0478 42.848 46.0118 42.836C45.9398 42.8 45.8498 42.866 45.7418 43.034C45.6338 43.19 45.5318 43.376 45.4358 43.592C45.3398 43.796 45.2558 44 45.1838 44.204C45.1118 44.396 45.0698 44.516 45.0578 44.564L44.3738 49.262H40.3058L41.2598 41.99C41.2598 41.894 41.2358 41.828 41.1878 41.792C41.1518 41.744 41.0918 41.702 41.0078 41.666C40.9598 41.63 40.9418 41.6 40.9538 41.576C40.9658 41.54 40.9898 41.516 41.0258 41.504L45.4898 41.36V41.378L45.2198 43.376ZM55.6282 47.696C55.2922 48.164 54.9022 48.56 54.4582 48.884C54.0142 49.208 53.4862 49.382 52.8742 49.406C52.4782 49.418 52.1422 49.358 51.8662 49.226C51.5902 49.082 51.3622 48.89 51.1822 48.65C51.0022 48.41 50.8702 48.128 50.7862 47.804C50.7142 47.48 50.6842 47.144 50.6962 46.796C50.7202 46.028 50.8942 45.296 51.2182 44.6C51.5542 43.892 51.9982 43.28 52.5502 42.764C53.1022 42.236 53.7382 41.828 54.4582 41.54C55.1782 41.24 55.9402 41.108 56.7442 41.144C57.3922 41.168 58.0282 41.24 58.6522 41.36C59.2762 41.468 59.9062 41.522 60.5422 41.522H60.5602C60.4042 42.566 60.2602 43.604 60.1282 44.636C59.9962 45.668 59.8462 46.7 59.6782 47.732V47.768H59.6602C59.6002 48.164 59.5282 48.56 59.4442 48.956C59.3602 49.352 59.2582 49.748 59.1382 50.144C58.8982 50.864 58.5262 51.512 58.0222 52.088C57.5302 52.664 56.9602 53.138 56.3122 53.51C55.6642 53.882 54.9622 54.14 54.2062 54.284C53.4622 54.428 52.7122 54.434 51.9562 54.302V53.924C52.7122 53.876 53.3122 53.636 53.7562 53.204C54.2122 52.772 54.5662 52.244 54.8182 51.62C55.0702 51.008 55.2502 50.354 55.3582 49.658C55.4662 48.95 55.5562 48.296 55.6282 47.696ZM56.3482 41.918C56.3002 41.882 56.2582 41.846 56.2222 41.81C56.1982 41.774 56.1562 41.75 56.0962 41.738C55.9162 41.702 55.7602 41.822 55.6282 42.098C55.5082 42.362 55.4062 42.668 55.3222 43.016C55.2382 43.364 55.1662 43.706 55.1062 44.042C55.0582 44.378 55.0282 44.6 55.0162 44.708C54.9682 45.008 54.9202 45.332 54.8722 45.68C54.8362 46.016 54.8122 46.334 54.8002 46.634C54.7882 46.922 54.7882 47.168 54.8002 47.372C54.8242 47.576 54.8782 47.684 54.9622 47.696C55.0222 47.72 55.0942 47.672 55.1782 47.552C55.2622 47.432 55.3462 47.294 55.4302 47.138C55.5142 46.982 55.5862 46.832 55.6462 46.688C55.7062 46.532 55.7482 46.424 55.7722 46.364L56.3482 41.918ZM71.9869 47.966C71.6749 48.35 71.2609 48.656 70.7449 48.884C70.2289 49.1 69.6829 49.238 69.1069 49.298C68.5309 49.358 67.9549 49.346 67.3789 49.262C66.8149 49.166 66.3229 48.992 65.9029 48.74V46.706H66.0649C66.1609 46.982 66.3529 47.306 66.6409 47.678C66.9289 48.05 67.2529 48.368 67.6129 48.632C67.9369 48.872 68.2489 49.01 68.5489 49.046C68.8609 49.07 69.0889 49.022 69.2329 48.902C69.3889 48.782 69.4309 48.596 69.3589 48.344C69.2989 48.08 69.0529 47.768 68.6209 47.408C68.3449 47.168 68.0569 46.952 67.7569 46.76C67.4569 46.556 67.1809 46.34 66.9289 46.112C66.6769 45.872 66.4669 45.608 66.2989 45.32C66.1309 45.02 66.0469 44.66 66.0469 44.24C66.0469 43.736 66.1429 43.298 66.3349 42.926C66.5389 42.554 66.8029 42.242 67.1269 41.99C67.4629 41.738 67.8409 41.54 68.2609 41.396C68.6809 41.252 69.1129 41.162 69.5569 41.126C70.0609 41.03 70.6069 41.03 71.1949 41.126C71.7829 41.222 72.3169 41.408 72.7969 41.684V43.682V43.7H72.6349V43.682C72.5389 43.478 72.3769 43.232 72.1489 42.944C71.9329 42.656 71.6929 42.392 71.4289 42.152C71.0569 41.792 70.6909 41.564 70.3309 41.468C69.9829 41.36 69.7069 41.354 69.5029 41.45C69.2989 41.534 69.2029 41.702 69.2149 41.954C69.2269 42.206 69.4129 42.5 69.7729 42.836C70.0489 43.076 70.3369 43.304 70.6369 43.52C70.9489 43.724 71.1709 43.874 71.3029 43.97C71.6629 44.222 71.9509 44.51 72.1669 44.834C72.3949 45.146 72.5449 45.482 72.6169 45.842C72.6889 46.19 72.6709 46.55 72.5629 46.922C72.4669 47.282 72.2749 47.63 71.9869 47.966ZM82.7436 44.276C82.7916 44.948 82.6716 45.584 82.3836 46.184C82.1076 46.784 81.7296 47.312 81.2496 47.768C80.7696 48.224 80.2176 48.602 79.5936 48.902C78.9696 49.19 78.3396 49.358 77.7036 49.406C77.1156 49.466 76.5576 49.418 76.0296 49.262C75.5016 49.094 75.0456 48.842 74.6616 48.506C74.2776 48.17 73.9896 47.756 73.7976 47.264C73.6056 46.76 73.5576 46.196 73.6536 45.572C73.7496 44.936 73.9716 44.348 74.3196 43.808C74.6796 43.268 75.1176 42.806 75.6336 42.422C76.1496 42.026 76.7136 41.72 77.3256 41.504C77.9496 41.288 78.5796 41.186 79.2156 41.198C79.6596 41.21 80.0856 41.288 80.4936 41.432C80.9136 41.576 81.2856 41.78 81.6096 42.044C81.9336 42.296 82.1916 42.614 82.3836 42.998C82.5876 43.37 82.7076 43.796 82.7436 44.276ZM78.6576 41.756C78.5256 41.744 78.4056 41.834 78.2976 42.026C78.1896 42.206 78.0876 42.458 77.9916 42.782C77.9076 43.106 77.8296 43.472 77.7576 43.88C77.6976 44.288 77.6436 44.696 77.5956 45.104C77.5956 45.152 77.5836 45.278 77.5596 45.482C77.5356 45.674 77.5116 45.908 77.4876 46.184C77.4756 46.448 77.4576 46.736 77.4336 47.048C77.4216 47.348 77.4216 47.63 77.4336 47.894C77.4456 48.158 77.4696 48.38 77.5056 48.56C77.5536 48.74 77.6256 48.836 77.7216 48.848C77.8296 48.86 77.9256 48.788 78.0096 48.632C78.1056 48.464 78.1956 48.254 78.2796 48.002C78.3636 47.738 78.4356 47.456 78.4956 47.156C78.5556 46.844 78.6096 46.55 78.6576 46.274C78.7056 45.998 78.7416 45.758 78.7656 45.554C78.8016 45.35 78.8256 45.224 78.8376 45.176C78.8856 44.768 78.9276 44.366 78.9636 43.97C78.9996 43.562 79.0116 43.202 78.9996 42.89C78.9996 42.566 78.9696 42.302 78.9096 42.098C78.8616 41.894 78.7776 41.78 78.6576 41.756ZM92.4116 44.276C92.4596 44.948 92.3396 45.584 92.0516 46.184C91.7756 46.784 91.3976 47.312 90.9176 47.768C90.4376 48.224 89.8856 48.602 89.2616 48.902C88.6376 49.19 88.0076 49.358 87.3716 49.406C86.7836 49.466 86.2256 49.418 85.6976 49.262C85.1696 49.094 84.7136 48.842 84.3296 48.506C83.9456 48.17 83.6576 47.756 83.4656 47.264C83.2736 46.76 83.2256 46.196 83.3216 45.572C83.4176 44.936 83.6396 44.348 83.9876 43.808C84.3476 43.268 84.7856 42.806 85.3016 42.422C85.8176 42.026 86.3816 41.72 86.9936 41.504C87.6176 41.288 88.2476 41.186 88.8836 41.198C89.3276 41.21 89.7536 41.288 90.1616 41.432C90.5816 41.576 90.9536 41.78 91.2776 42.044C91.6016 42.296 91.8596 42.614 92.0516 42.998C92.2556 43.37 92.3756 43.796 92.4116 44.276ZM88.3256 41.756C88.1936 41.744 88.0736 41.834 87.9656 42.026C87.8576 42.206 87.7556 42.458 87.6596 42.782C87.5756 43.106 87.4976 43.472 87.4256 43.88C87.3656 44.288 87.3116 44.696 87.2636 45.104C87.2636 45.152 87.2516 45.278 87.2276 45.482C87.2036 45.674 87.1796 45.908 87.1556 46.184C87.1436 46.448 87.1256 46.736 87.1016 47.048C87.0896 47.348 87.0896 47.63 87.1016 47.894C87.1136 48.158 87.1376 48.38 87.1736 48.56C87.2216 48.74 87.2936 48.836 87.3896 48.848C87.4976 48.86 87.5936 48.788 87.6776 48.632C87.7736 48.464 87.8636 48.254 87.9476 48.002C88.0316 47.738 88.1036 47.456 88.1636 47.156C88.2236 46.844 88.2776 46.55 88.3256 46.274C88.3736 45.998 88.4096 45.758 88.4336 45.554C88.4696 45.35 88.4936 45.224 88.5056 45.176C88.5536 44.768 88.5956 44.366 88.6316 43.97C88.6676 43.562 88.6796 43.202 88.6676 42.89C88.6676 42.566 88.6376 42.302 88.5776 42.098C88.5296 41.894 88.4456 41.78 88.3256 41.756ZM97.8135 43.376C98.0535 42.872 98.3535 42.446 98.7135 42.098C99.0735 41.75 99.4455 41.492 99.8295 41.324C100.226 41.144 100.61 41.06 100.982 41.072C101.354 41.084 101.678 41.21 101.954 41.45C102.23 41.678 102.434 42.026 102.566 42.494C102.71 42.95 102.74 43.538 102.656 44.258C102.584 44.858 102.506 45.458 102.422 46.058C102.35 46.646 102.272 47.24 102.188 47.84C102.176 47.9 102.17 47.996 102.17 48.128C102.182 48.248 102.242 48.296 102.35 48.272C102.518 48.224 102.602 48.236 102.602 48.308C102.602 48.38 102.554 48.458 102.458 48.542C102.266 48.71 102.02 48.86 101.72 48.992C101.42 49.124 101.096 49.226 100.748 49.298C100.412 49.37 100.07 49.412 99.7215 49.424C99.3855 49.424 99.0855 49.382 98.8215 49.298C98.5575 49.202 98.3475 49.052 98.1915 48.848C98.0475 48.632 97.9995 48.35 98.0475 48.002L98.5335 44.168C98.5455 44.132 98.5575 44.048 98.5695 43.916C98.5935 43.772 98.6115 43.622 98.6235 43.466C98.6475 43.31 98.6595 43.172 98.6595 43.052C98.6595 42.92 98.6415 42.848 98.6055 42.836C98.5335 42.8 98.4435 42.866 98.3355 43.034C98.2275 43.19 98.1255 43.376 98.0295 43.592C97.9335 43.796 97.8495 44 97.7775 44.204C97.7055 44.396 97.6635 44.516 97.6515 44.564L96.9675 49.262H92.8995L93.8535 41.99C93.8535 41.894 93.8295 41.828 93.7815 41.792C93.7455 41.744 93.6855 41.702 93.6015 41.666C93.5535 41.63 93.5355 41.6 93.5475 41.576C93.5595 41.54 93.5835 41.516 93.6195 41.504L98.0835 41.36V41.378L97.8135 43.376Z" fill="black"/>
</svg>
